<?xml version="1.0" encoding="UTF-8"?>
<svg id="Layer_1" xmlns="http://www.w3.org/2000/svg" version="1.1" viewBox="0 0 283.46 283.46">
  <!-- Generator: Adobe Illustrator 29.8.2, SVG Export Plug-In . SVG Version: 2.1.1 Build 3)  -->
  <defs>
    <style>
      .st0 {
        fill: #785f3b;
      }

      .st1 {
        fill: #162716;
      }
    </style>
  </defs>
  <rect class="st1" x="-.24" y="0" width="283.46" height="283.65"/>
  <g>
    <rect class="st0" x="139.08" y="100.14" width="4.82" height="117.12"/>
    <path class="st0" d="M141.49,163.64c-34.87,0-63.24-28.49-63.24-63.5h4.82c0,32.34,26.21,58.66,58.42,58.66s58.42-26.31,58.42-58.66h4.82c0,35.01-28.37,63.5-63.24,63.5Z"/>
    <path class="st0" d="M135.98,146.59c-25.51,0-46.27-20.84-46.27-46.45h4.82c0,22.94,18.59,41.61,41.44,41.61s41.44-18.67,41.44-41.61h4.82c0,25.61-20.75,46.45-46.26,46.45Z"/>
    <path class="st0" d="M131.05,153.15c-29.11,0-52.8-23.78-52.8-53.01h4.82c0,26.56,21.52,48.17,47.97,48.17s47.98-21.61,47.98-48.17h4.82c0,29.23-23.69,53.01-52.8,53.01Z"/>
    <path class="st0" d="M141.49,129.32c-16.03,0-29.06-13.09-29.06-29.18h4.82c0,13.42,10.87,24.34,24.24,24.34s24.24-10.92,24.24-24.34h4.82c0,16.09-13.04,29.18-29.06,29.18Z"/>
    <path class="st0" d="M147.34,135.18c-19.25,0-34.91-15.72-34.91-35.05h4.82c0,16.65,13.5,30.2,30.08,30.2s30.08-13.55,30.08-30.2h4.82c0,19.33-15.66,35.05-34.91,35.05Z"/>
    <path class="st0" d="M141.49,218.3c-42,0-76.17-34.31-76.17-76.48s34.17-76.48,76.17-76.48,76.17,34.31,76.17,76.48-34.17,76.48-76.17,76.48ZM141.49,70.19c-39.34,0-71.34,32.13-71.34,71.63s32,71.63,71.34,71.63,71.34-32.13,71.34-71.63-32-71.63-71.34-71.63Z"/>
  </g>
</svg>